<svg width="56" height="375" viewBox="0 0 56 375" fill="none" xmlns="http://www.w3.org/2000/svg">
<path d="M55.8929 1.33901C56.0801 0.969521 55.9324 0.518217 55.5629 0.330989C55.1934 0.143762 54.7421 0.29151 54.5549 0.660995L55.8929 1.33901ZM52.7239 375L48.9751 367.193L44.0886 374.343L52.7239 375ZM54.5549 0.660995C11.0405 86.5345 -2.4479 170.039 0.681353 236.688C2.24592 270.011 7.96524 299.133 16.1724 322.239C24.3728 345.327 35.0832 362.48 46.6829 371.777L47.621 370.607C36.3317 361.558 25.743 344.703 17.5859 321.737C9.43537 298.791 3.73846 269.817 2.1797 236.617C-0.937703 170.221 12.4988 86.9751 55.8929 1.33901L54.5549 0.660995Z" fill="url(#paint0_linear_10_143)"/>
<defs>
<linearGradient id="paint0_linear_10_143" x1="55" y1="12.5" x2="28.112" y2="375" gradientUnits="userSpaceOnUse">
<stop stop-color="#FFC740"/>
<stop offset="1" stop-color="#FFC740"/>
</linearGradient>
</defs>
</svg>
