<svg width="127" height="91" viewBox="0 0 127 91" fill="none" xmlns="http://www.w3.org/2000/svg">
<path d="M0 0H127V91H0V0Z" fill="white"/>
<path d="M37.8853 30.1696C39.0671 31.3814 39.6593 33.1094 39.6593 35.3585V35.5331C39.6593 38.0716 39.0619 40.0002 37.8644 41.3137C36.6668 42.6272 35.0317 43.4951 32.9564 43.9199C30.881 44.3421 28.1375 44.5845 24.7309 44.6418H22.7106L3 44.5975V12.1946H26.6281C29.8171 12.2232 32.3589 12.9243 34.2561 14.2952C36.1532 15.6686 37.1018 17.6077 37.1018 20.1174V20.2921C37.1018 22.1894 36.7297 23.7375 35.9882 24.9337C35.2466 26.1299 34.1329 27.0213 32.6472 27.6051C34.9557 28.1028 36.7009 28.9551 37.8827 30.167L37.8853 30.1696ZM29.5158 18.6554C29.0205 18.1159 28.3759 17.7797 27.5767 17.6494C26.7801 17.5191 25.6245 17.4513 24.1125 17.4513H9.72131V25.1578L20.402 25.2881H19.9906H24.1151C25.6533 25.2881 26.801 25.2386 27.5583 25.1344C28.313 25.0327 28.9524 24.6965 29.4765 24.1284C29.9979 23.5602 30.26 22.6168 30.26 21.3033C30.26 20.0783 30.0137 19.1948 29.5184 18.6554H29.5158ZM29.4529 38.8169C30.3464 38.671 31.054 38.2853 31.5754 37.6572C32.0969 37.0291 32.3589 35.9996 32.3589 34.5714C32.3589 33.1432 32.0969 32.2076 31.5754 31.5952C31.054 30.9827 30.3438 30.61 29.4529 30.4797C28.5593 30.3494 27.2203 30.2816 25.4332 30.2816H9.72131V38.9499C16.1544 38.9499 20.7715 38.9785 23.5753 39.0385H25.4306C27.2177 39.0385 28.5567 38.9655 29.4503 38.8195L29.4529 38.8169Z" fill="black"/>
<path d="M73.2004 12.1947H80.8153V29.2705C80.8153 32.4527 80.0004 35.27 78.3731 37.7198C76.7432 40.1723 74.5054 42.0852 71.6596 43.4561C68.8139 44.827 65.6275 45.515 62.1057 45.515C58.5839 45.515 55.3188 44.8296 52.3106 43.4561C49.3024 42.0852 46.9021 40.1645 45.1124 37.699C43.3227 35.2335 42.4108 32.4371 42.382 29.3148V12.1947H50.0414V29.6224C50.0414 31.9862 50.7174 33.8835 52.0669 35.3143C53.4164 36.7451 55.0175 37.7589 56.8649 38.3584C58.7149 38.9578 60.4758 39.2549 62.1476 39.2549C63.6727 39.2549 65.2868 38.9552 66.9901 38.3584C68.6907 37.7615 70.1529 36.7451 71.3714 35.3143C72.5899 33.8835 73.1978 31.9862 73.1978 29.6224V12.1947H73.2004ZM53.5448 9.23925C52.8242 8.52515 52.4652 7.65728 52.4652 6.63305C52.4652 5.60881 52.8242 4.75137 53.5448 4.0503C54.2628 3.34923 55.1354 3 56.1652 3C57.1951 3 58.0205 3.34923 58.7411 4.0503C59.4591 4.75137 59.8207 5.61142 59.8207 6.63305C59.8207 7.65468 59.4696 8.52254 58.7647 9.23925C58.0598 9.95596 57.1951 10.313 56.1679 10.313C55.1407 10.313 54.2681 9.95596 53.5475 9.23925H53.5448ZM63.9347 9.23925C63.2141 8.52515 62.8551 7.65728 62.8551 6.63305C62.8551 5.60881 63.2141 4.75137 63.9347 4.0503C64.6527 3.34923 65.5253 3 66.5551 3C67.5849 3 68.4051 3.34923 69.1074 4.0503C69.8096 4.75137 70.1634 5.61142 70.1634 6.63305C70.1634 7.65468 69.8123 8.52254 69.1074 9.23925C68.4025 9.95596 67.5509 10.313 66.5551 10.313C65.5594 10.313 64.6553 9.95596 63.9347 9.23925Z" fill="black"/>
<path d="M30.9989 80.9958L21.9743 70.5319H10.3083V80.9958H3V48.5955H26.0254C28.7559 48.5955 31.1692 49.0489 33.2682 49.9533C35.3671 50.8576 36.9944 52.1217 38.1552 53.7401C39.3134 55.3612 39.8952 57.235 39.8952 59.3669V59.5415C39.8952 62.3145 39.0802 64.6054 37.453 66.4167C35.8231 68.228 33.5722 69.4373 30.695 70.0497L40.1598 80.9958H31.0042H30.9989ZM31.4601 56.0831C30.8286 55.3247 30.0294 54.8582 29.0598 54.6809C28.0903 54.5063 26.7277 54.4177 24.9668 54.4177C24.1754 54.4177 23.4994 54.4334 22.9412 54.462C18.9792 54.5506 14.7682 54.5923 10.3057 54.5923V64.707H24.9642C26.7251 64.707 28.0903 64.6262 29.0572 64.4672C30.0268 64.3083 30.826 63.8704 31.4575 63.1537C32.089 62.4396 32.4035 61.2929 32.4035 59.7161C32.4035 58.0534 32.0864 56.8415 31.4575 56.0831H31.4601Z" fill="black"/>
<path d="M71.5679 50.4173C74.5342 51.8116 76.8559 53.7532 78.5329 56.2396C80.21 58.7285 81.0538 61.5249 81.059 64.6315C81.0642 67.7381 80.2336 70.4825 78.5644 72.9479C76.8952 75.4134 74.5892 77.3576 71.6439 78.7754C68.6986 80.1932 65.3812 80.9073 61.6969 80.9151C58.0126 80.9229 54.8341 80.2218 51.8259 78.8145C48.8176 77.4071 46.4331 75.4655 44.6696 72.9922C42.906 70.5189 42.023 67.7564 42.0177 64.7071C42.0125 61.6579 42.8851 58.8432 44.6381 56.349C46.3912 53.8549 48.7626 51.8976 51.7499 50.4798C54.7371 49.0621 58.0205 48.348 61.5921 48.3402C65.1637 48.3323 68.6042 49.0256 71.5705 50.4199L71.5679 50.4173ZM67.5089 73.8914C69.3511 73.0756 70.8368 71.8768 71.9688 70.2948C73.0982 68.7128 73.6642 66.8286 73.659 64.6446C73.6538 62.4606 73.0773 60.6154 71.9269 59.023C70.7766 57.4306 69.2698 56.2161 67.412 55.3795C65.5541 54.5429 63.5888 54.1285 61.5187 54.1311C59.3071 54.1363 57.2868 54.5586 55.4603 55.403C53.6339 56.2448 52.1822 57.4514 51.1079 59.0204C50.0335 60.5893 49.499 62.4527 49.5016 64.6081C49.5042 66.7634 50.0702 68.7155 51.1917 70.2922C52.3133 71.8716 53.799 73.073 55.6438 73.894C57.4885 74.7175 59.4879 75.1241 61.6419 75.1215C63.7958 75.1189 65.6668 74.7097 67.5089 73.894V73.8914Z" fill="black"/>
<path d="M37.8853 30.1696C39.0671 31.3814 39.6593 33.1094 39.6593 35.3585V35.5331C39.6593 38.0716 39.0619 40.0002 37.8644 41.3137C36.6668 42.6272 35.0317 43.4951 32.9564 43.9199C30.881 44.3421 28.1375 44.5845 24.7309 44.6418H22.7106L3 44.5975V12.1946H26.6281C29.8171 12.2232 32.3589 12.9243 34.2561 14.2952C36.1532 15.6686 37.1018 17.6077 37.1018 20.1174V20.2921C37.1018 22.1894 36.7297 23.7375 35.9882 24.9337C35.2466 26.1299 34.1329 27.0213 32.6472 27.6051C34.9557 28.1028 36.7009 28.9551 37.8827 30.167L37.8853 30.1696ZM29.5158 18.6554C29.0205 18.1159 28.3759 17.7797 27.5767 17.6494C26.7801 17.5191 25.6245 17.4513 24.1125 17.4513H9.72131V25.1578L20.402 25.2881H19.9906H24.1151C25.6533 25.2881 26.801 25.2386 27.5583 25.1344C28.313 25.0327 28.9524 24.6965 29.4765 24.1284C29.9979 23.5602 30.26 22.6168 30.26 21.3033C30.26 20.0783 30.0137 19.1948 29.5184 18.6554H29.5158ZM29.4529 38.8169C30.3464 38.671 31.054 38.2853 31.5754 37.6572C32.0969 37.0291 32.3589 35.9996 32.3589 34.5714C32.3589 33.1432 32.0969 32.2076 31.5754 31.5952C31.054 30.9827 30.3438 30.61 29.4529 30.4797C28.5593 30.3494 27.2203 30.2816 25.4332 30.2816H9.72131V38.9499C16.1544 38.9499 20.7715 38.9785 23.5753 39.0385H25.4306C27.2177 39.0385 28.5567 38.9655 29.4503 38.8195L29.4529 38.8169Z" fill="black"/>
<path d="M73.2004 12.1947H80.8153V29.2705C80.8153 32.4527 80.0004 35.27 78.3731 37.7198C76.7432 40.1723 74.5054 42.0852 71.6596 43.4561C68.8139 44.827 65.6275 45.515 62.1057 45.515C58.5839 45.515 55.3188 44.8296 52.3106 43.4561C49.3024 42.0852 46.9021 40.1645 45.1124 37.699C43.3227 35.2335 42.4108 32.4371 42.382 29.3148V12.1947H50.0414V29.6224C50.0414 31.9862 50.7174 33.8835 52.0669 35.3143C53.4164 36.7451 55.0175 37.7589 56.8649 38.3584C58.7149 38.9578 60.4758 39.2549 62.1476 39.2549C63.6727 39.2549 65.2868 38.9552 66.9901 38.3584C68.6907 37.7615 70.1529 36.7451 71.3714 35.3143C72.5899 33.8835 73.1978 31.9862 73.1978 29.6224V12.1947H73.2004ZM53.5448 9.23925C52.8242 8.52515 52.4652 7.65728 52.4652 6.63305C52.4652 5.60881 52.8242 4.75137 53.5448 4.0503C54.2628 3.34923 55.1354 3 56.1652 3C57.1951 3 58.0205 3.34923 58.7411 4.0503C59.4591 4.75137 59.8207 5.61142 59.8207 6.63305C59.8207 7.65468 59.4696 8.52254 58.7647 9.23925C58.0598 9.95596 57.1951 10.313 56.1679 10.313C55.1407 10.313 54.2681 9.95596 53.5475 9.23925H53.5448ZM63.9347 9.23925C63.2141 8.52515 62.8551 7.65728 62.8551 6.63305C62.8551 5.60881 63.2141 4.75137 63.9347 4.0503C64.6527 3.34923 65.5253 3 66.5551 3C67.5849 3 68.4051 3.34923 69.1074 4.0503C69.8096 4.75137 70.1634 5.61142 70.1634 6.63305C70.1634 7.65468 69.8123 8.52254 69.1074 9.23925C68.4025 9.95596 67.5509 10.313 66.5551 10.313C65.5594 10.313 64.6553 9.95596 63.9347 9.23925Z" fill="black"/>
<path d="M30.9989 80.9958L21.9743 70.5319H10.3083V80.9958H3V48.5955H26.0254C28.7559 48.5955 31.1692 49.0489 33.2682 49.9533C35.3671 50.8576 36.9944 52.1217 38.1552 53.7401C39.3134 55.3612 39.8952 57.235 39.8952 59.3669V59.5415C39.8952 62.3145 39.0802 64.6054 37.453 66.4167C35.8231 68.228 33.5722 69.4373 30.695 70.0497L40.1598 80.9958H31.0042H30.9989ZM31.4601 56.0831C30.8286 55.3247 30.0294 54.8582 29.0598 54.6809C28.0903 54.5063 26.7277 54.4177 24.9668 54.4177C24.1754 54.4177 23.4994 54.4334 22.9412 54.462C18.9792 54.5506 14.7682 54.5923 10.3057 54.5923V64.707H24.9642C26.7251 64.707 28.0903 64.6262 29.0572 64.4672C30.0268 64.3083 30.826 63.8704 31.4575 63.1537C32.089 62.4396 32.4035 61.2929 32.4035 59.7161C32.4035 58.0534 32.0864 56.8415 31.4575 56.0831H31.4601Z" fill="black"/>
<path d="M71.5679 50.4173C74.5342 51.8116 76.8559 53.7532 78.5329 56.2396C80.21 58.7285 81.0538 61.5249 81.059 64.6315C81.0642 67.7381 80.2336 70.4825 78.5644 72.9479C76.8952 75.4134 74.5892 77.3576 71.6439 78.7754C68.6986 80.1932 65.3812 80.9073 61.6969 80.9151C58.0126 80.9229 54.8341 80.2218 51.8259 78.8145C48.8176 77.4071 46.4331 75.4655 44.6696 72.9922C42.906 70.5189 42.023 67.7564 42.0177 64.7071C42.0125 61.6579 42.8851 58.8432 44.6381 56.349C46.3912 53.8549 48.7626 51.8976 51.7499 50.4798C54.7371 49.0621 58.0205 48.348 61.5921 48.3402C65.1637 48.3323 68.6042 49.0256 71.5705 50.4199L71.5679 50.4173ZM67.5089 73.8914C69.3511 73.0756 70.8368 71.8768 71.9688 70.2948C73.0982 68.7128 73.6642 66.8286 73.659 64.6446C73.6538 62.4606 73.0773 60.6154 71.9269 59.023C70.7766 57.4306 69.2698 56.2161 67.412 55.3795C65.5541 54.5429 63.5888 54.1285 61.5187 54.1311C59.3071 54.1363 57.2868 54.5586 55.4603 55.403C53.6339 56.2448 52.1822 57.4514 51.1079 59.0204C50.0335 60.5893 49.499 62.4527 49.5016 64.6081C49.5042 66.7634 50.0702 68.7155 51.1917 70.2922C52.3133 71.8716 53.799 73.073 55.6438 73.894C57.4885 74.7175 59.4879 75.1241 61.6419 75.1215C63.7958 75.1189 65.6668 74.7097 67.5089 73.894V73.8914Z" fill="black"/>
<path d="M104.697 49.0591L122.7 14.4567L86.6999 14.4567L104.697 49.0591Z" fill="#FF8700"/>
<path d="M104.703 49.0591L86.6999 85.7585L122.7 85.7585L104.703 49.0591Z" fill="#FAB718"/>
</svg>
