<svg width="285" height="172" viewBox="0 0 285 172" fill="none" xmlns="http://www.w3.org/2000/svg">
<path d="M259.009 0.448993C258.704 0.167983 258.23 0.186874 257.949 0.491187C257.668 0.7955 257.687 1.27 257.991 1.55101L259.009 0.448993ZM0 171L8.63815 171.618L4.85457 163.828L0 171ZM257.991 1.55101C271.502 14.0269 279.052 25.2556 281.846 35.4113C284.63 45.528 282.713 54.6535 277.121 63.0216C271.509 71.4192 262.184 79.0653 250.147 86.1195C238.118 93.169 223.432 99.5972 207.157 105.582C174.604 117.552 135.789 127.714 99.3302 137.527C62.9043 147.332 28.7991 156.795 5.76898 167.364L6.39463 168.728C29.2862 158.222 63.2555 148.791 99.72 138.976C136.151 129.17 175.043 118.989 207.675 106.99C223.993 100.989 238.77 94.5256 250.906 87.4136C263.034 80.3063 272.577 72.5213 278.368 63.8551C284.179 55.1595 286.202 45.5886 283.293 35.0135C280.394 24.4774 272.621 13.0188 259.009 0.448993L257.991 1.55101Z" fill="url(#paint0_linear_0_506)"/>
<defs>
<linearGradient id="paint0_linear_0_506" x1="211" y1="-139" x2="184.112" y2="223.5" gradientUnits="userSpaceOnUse">
<stop stop-color="#FFC740"/>
<stop offset="1" stop-color="#FFC740"/>
</linearGradient>
</defs>
</svg>
