<svg width="120" height="83" viewBox="0 0 120 83" fill="none" xmlns="http://www.w3.org/2000/svg">
<path d="M34.8853 27.1696C36.0671 28.3814 36.6593 30.1094 36.6593 32.3585V32.5331C36.6593 35.0716 36.0619 37.0002 34.8644 38.3137C33.6668 39.6272 32.0317 40.4951 29.9564 40.9199C27.881 41.3421 25.1375 41.5845 21.7309 41.6418H19.7106L0 41.5975V9.19458H23.6281C26.8171 9.22325 29.3589 9.92432 31.2561 11.2952C33.1532 12.6686 34.1018 14.6077 34.1018 17.1174V17.2921C34.1018 19.1894 33.7297 20.7375 32.9882 21.9337C32.2466 23.1299 31.1329 24.0213 29.6472 24.6051C31.9557 25.1028 33.7009 25.9551 34.8827 27.167L34.8853 27.1696ZM26.5158 15.6554C26.0205 15.1159 25.3759 14.7797 24.5767 14.6494C23.7801 14.5191 22.6245 14.4513 21.1125 14.4513H6.72131V22.1578L17.402 22.2881H16.9906H21.1151C22.6533 22.2881 23.801 22.2386 24.5583 22.1344C25.313 22.0327 25.9524 21.6965 26.4765 21.1284C26.9979 20.5602 27.26 19.6168 27.26 18.3033C27.26 17.0783 27.0137 16.1948 26.5184 15.6554H26.5158ZM26.4529 35.8169C27.3464 35.671 28.054 35.2853 28.5754 34.6572C29.0969 34.0291 29.3589 32.9996 29.3589 31.5714C29.3589 30.1432 29.0969 29.2076 28.5754 28.5952C28.054 27.9827 27.3438 27.61 26.4529 27.4797C25.5593 27.3494 24.2203 27.2816 22.4332 27.2816H6.72131V35.9499C13.1544 35.9499 17.7715 35.9785 20.5753 36.0385H22.4306C24.2177 36.0385 25.5567 35.9655 26.4503 35.8195L26.4529 35.8169Z" fill="black"/>
<path d="M70.2003 9.19468H77.8152V26.2705C77.8152 29.4527 77.0002 32.27 75.373 34.7198C73.7431 37.1723 71.5053 39.0852 68.6595 40.4561C65.8138 41.827 62.6274 42.515 59.1055 42.515C55.5837 42.515 52.3187 41.8296 49.3105 40.4561C46.3023 39.0852 43.902 37.1645 42.1123 34.699C40.3226 32.2335 39.4107 29.4371 39.3818 26.3148V9.19468H47.0413V26.6224C47.0413 28.9862 47.7173 30.8835 49.0668 32.3143C50.4163 33.7451 52.0174 34.7589 53.8648 35.3584C55.7148 35.9578 57.4757 36.2549 59.1475 36.2549C60.6725 36.2549 62.2867 35.9552 63.99 35.3584C65.6906 34.7615 67.1528 33.7451 68.3713 32.3143C69.5898 30.8835 70.1977 28.9862 70.1977 26.6224V9.19468H70.2003ZM50.5447 6.23925C49.8241 5.52515 49.4651 4.65728 49.4651 3.63305C49.4651 2.60881 49.8241 1.75137 50.5447 1.0503C51.2627 0.349231 52.1353 0 53.1651 0C54.1949 0 55.0204 0.349231 55.741 1.0503C56.459 1.75137 56.8206 2.61142 56.8206 3.63305C56.8206 4.65468 56.4694 5.52254 55.7645 6.23925C55.0597 6.95596 54.1949 7.31301 53.1677 7.31301C52.1405 7.31301 51.2679 6.95596 50.5473 6.23925H50.5447ZM60.9346 6.23925C60.214 5.52515 59.855 4.65728 59.855 3.63305C59.855 2.60881 60.214 1.75137 60.9346 1.0503C61.6526 0.349231 62.5252 0 63.555 0C64.5848 0 65.405 0.349231 66.1072 1.0503C66.8095 1.75137 67.1633 2.61142 67.1633 3.63305C67.1633 4.65468 66.8121 5.52254 66.1072 6.23925C65.4024 6.95596 64.5507 7.31301 63.555 7.31301C62.5592 7.31301 61.6552 6.95596 60.9346 6.23925Z" fill="black"/>
<path d="M27.9989 77.9958L18.9743 67.5319H7.30828V77.9958H0V45.5955H23.0254C25.7559 45.5955 28.1692 46.0489 30.2682 46.9533C32.3671 47.8576 33.9944 49.1217 35.1552 50.7401C36.3134 52.3612 36.8952 54.235 36.8952 56.3669V56.5415C36.8952 59.3145 36.0802 61.6054 34.453 63.4167C32.8231 65.228 30.5722 66.4373 27.695 67.0497L37.1598 77.9958H28.0042H27.9989ZM28.4601 53.0831C27.8286 52.3247 27.0294 51.8582 26.0598 51.6809C25.0903 51.5063 23.7277 51.4177 21.9668 51.4177C21.1754 51.4177 20.4994 51.4334 19.9412 51.462C15.9792 51.5506 11.7682 51.5923 7.30566 51.5923V61.707H21.9642C23.7251 61.707 25.0903 61.6262 26.0572 61.4672C27.0268 61.3083 27.826 60.8704 28.4575 60.1537C29.089 59.4396 29.4035 58.2929 29.4035 56.7161C29.4035 55.0534 29.0864 53.8415 28.4575 53.0831H28.4601Z" fill="black"/>
<path d="M68.5678 47.4173C71.5341 48.8116 73.8558 50.7532 75.5328 53.2396C77.2099 55.7285 78.0536 58.5249 78.0589 61.6315C78.0641 64.7381 77.2334 67.4825 75.5643 69.9479C73.8951 72.4134 71.5891 74.3576 68.6438 75.7754C65.6985 77.1932 62.381 77.9073 58.6968 77.9151C55.0125 77.9229 51.834 77.2218 48.8257 75.8145C45.8175 74.4071 43.433 72.4655 41.6694 69.9922C39.9059 67.5189 39.0228 64.7564 39.0176 61.7071C39.0124 58.6579 39.885 55.8432 41.638 53.349C43.391 50.8549 45.7625 48.8976 48.7497 47.4798C51.737 46.0621 55.0204 45.348 58.592 45.3402C62.1636 45.3323 65.6041 46.0256 68.5704 47.4199L68.5678 47.4173ZM64.5088 70.8914C66.3509 70.0756 67.8367 68.8768 68.9687 67.2948C70.0981 65.7128 70.6641 63.8286 70.6589 61.6446C70.6536 59.4606 70.0771 57.6154 68.9268 56.023C67.7764 54.4306 66.2697 53.2161 64.4118 52.3795C62.554 51.5429 60.5887 51.1285 58.5186 51.1311C56.307 51.1363 54.2866 51.5586 52.4602 52.403C50.6338 53.2448 49.1821 54.4514 48.1078 56.0204C47.0334 57.5893 46.4988 59.4527 46.5015 61.6081C46.5041 63.7634 47.0701 65.7155 48.1916 67.2922C49.3131 68.8716 50.7989 70.073 52.6437 70.894C54.4884 71.7175 56.4878 72.1241 58.6417 72.1215C60.7957 72.1189 62.6667 71.7097 64.5088 70.894V70.8914Z" fill="black"/>
<path d="M101.697 46.0591L119.7 11.4567L83.6999 11.4567L101.697 46.0591Z" fill="#FF8700"/>
<path d="M101.703 46.0591L83.6999 82.7585L119.7 82.7585L101.703 46.0591Z" fill="#FAB718"/>
</svg>
