<svg width="313" height="98" viewBox="0 0 313 98" fill="none" xmlns="http://www.w3.org/2000/svg">
<path d="M292.509 0.448993C292.204 0.167983 291.73 0.186874 291.449 0.491187C291.168 0.7955 291.187 1.27 291.491 1.55101L292.509 0.448993ZM4 98L9.05342 90.967L0.435965 90.1071L4 98ZM291.491 1.55101C298.239 7.78207 303.066 13.2207 306.202 17.9608C309.342 22.7072 310.75 26.6953 310.754 30.0407C310.758 33.3494 309.391 36.122 306.767 38.4773C304.122 40.8529 300.198 42.7999 295.136 44.3752C285.013 47.5256 270.583 49.1163 253.44 49.8632C236.311 50.6095 216.539 50.5118 195.758 50.3112C154.224 49.9102 108.653 49.0968 72.3381 53.8279C54.1822 56.1934 38.276 59.9516 26.3219 65.8772C14.3591 71.807 6.26127 79.9584 3.93578 91.1323L5.40431 91.4379C7.60208 80.8777 15.2617 73.0338 26.9881 67.2211C38.7231 61.4042 54.4378 57.6727 72.5319 55.3154C108.718 50.601 154.163 51.4097 195.744 51.8111C216.52 52.0117 236.33 52.1101 253.505 51.3618C270.665 50.6141 285.261 49.0193 295.582 45.8074C300.742 44.2016 304.896 42.1732 307.77 39.5935C310.665 36.9936 312.259 33.8309 312.254 30.0387C312.249 26.2832 310.676 22.0048 307.453 17.1331C304.225 12.2552 299.305 6.7245 292.509 0.448993L291.491 1.55101Z" fill="url(#paint0_linear_93_283)"/>
<defs>
<linearGradient id="paint0_linear_93_283" x1="319" y1="-153" x2="292.112" y2="209.5" gradientUnits="userSpaceOnUse">
<stop stop-color="#FFC740"/>
<stop offset="1" stop-color="#FFC740"/>
</linearGradient>
</defs>
</svg>
