<svg width="638" height="638" viewBox="0 0 638 638" fill="none" xmlns="http://www.w3.org/2000/svg">
<path opacity="0.57" d="M29.627 638L29.627 0M87.5928 638L87.5928 0M145.559 638L145.559 0M203.524 638L203.524 0M261.49 638L261.49 0M319.456 638L319.456 0M377.422 638L377.422 0M435.388 638L435.388 0M493.354 638L493.354 0M551.319 638L551.319 0M609.285 638L609.285 0M638 608.829L0 608.829M638 550.863L0 550.863M638 492.898L0 492.898M638 434.932L0 434.932M638 376.966L0 376.966M638 319L0 319M638 261.034L0 261.034M638 203.068L0 203.068M638 145.103L0 145.103M638 87.1368L0 87.1368M638 29.171L0 29.171" stroke="url(#paint0_radial_10_74)" stroke-width="1.23884"/>
<defs>
<radialGradient id="paint0_radial_10_74" cx="0" cy="0" r="1" gradientUnits="userSpaceOnUse" gradientTransform="translate(319 319) rotate(90) scale(319)">
<stop stop-color="#09090B"/>
<stop offset="1" stop-color="#09090B" stop-opacity="0"/>
</radialGradient>
</defs>
</svg>
