<svg width="180" height="121" viewBox="0 0 180 121" fill="none" xmlns="http://www.w3.org/2000/svg">
<path d="M52.764 41.0939C54.5515 42.9269 55.4472 45.5403 55.4472 48.9422V49.2063C55.4472 53.0457 54.5436 55.9627 52.7323 57.9494C50.9211 59.9361 48.448 61.2487 45.309 61.8913C42.17 62.5298 38.0204 62.8964 32.868 62.9832H29.8123L0 62.9162V13.9067H35.7375C40.5609 13.9501 44.4053 15.0105 47.2748 17.0839C50.1443 19.1613 51.579 22.094 51.579 25.8901V26.1542C51.579 29.0239 51.0162 31.3653 49.8946 33.1747C48.773 34.984 47.0885 36.3321 44.8413 37.2151C48.333 37.968 50.9726 39.257 52.7601 41.09L52.764 41.0939ZM40.1051 23.6787C39.356 22.8627 38.3811 22.3542 37.1722 22.1571C35.9674 21.96 34.2195 21.8575 31.9327 21.8575H10.166V33.5137L26.3206 33.7108H25.6983H31.9367C34.2631 33.7108 35.9991 33.6359 37.1445 33.4782C38.2859 33.3244 39.253 32.8159 40.0457 31.9566C40.8344 31.0973 41.2307 29.6703 41.2307 27.6836C41.2307 25.8309 40.8582 24.4946 40.1091 23.6787H40.1051ZM40.01 54.1731C41.3615 53.9523 42.4316 53.3689 43.2203 52.4189C44.009 51.4689 44.4053 49.9119 44.4053 47.7517C44.4053 45.5916 44.009 44.1764 43.2203 43.2501C42.4316 42.3238 41.3575 41.7601 40.01 41.563C38.6585 41.3659 36.6332 41.2634 33.9302 41.2634H10.166V54.3741C19.896 54.3741 26.8794 54.4175 31.1202 54.5081H33.9263C36.6293 54.5081 38.6545 54.3977 40.006 54.177L40.01 54.1731Z" fill="#D6D6D6"/>
<path d="M106.178 13.907H117.696V39.7342C117.696 44.5472 116.463 48.8084 114.002 52.5137C111.537 56.2231 108.152 59.1164 103.848 61.1898C99.5435 63.2633 94.724 64.3039 89.3973 64.3039C84.0706 64.3039 79.1322 63.2672 74.5823 61.1898C70.0324 59.1164 66.402 56.2112 63.695 52.4822C60.988 48.7532 59.6088 44.5236 59.5652 39.8012V13.907H71.1501V40.2663C71.1501 43.8416 72.1726 46.7113 74.2137 48.8754C76.2548 51.0395 78.6764 52.5729 81.4706 53.4795C84.2687 54.3861 86.9321 54.8355 89.4607 54.8355C91.7674 54.8355 94.2088 54.3822 96.785 53.4795C99.3572 52.5768 101.569 51.0395 103.412 48.8754C105.255 46.7113 106.174 43.8416 106.174 40.2663V13.907H106.178ZM76.449 9.43686C75.3591 8.35679 74.8162 7.04414 74.8162 5.49498C74.8162 3.94582 75.3591 2.64894 76.449 1.58858C77.535 0.528212 78.8548 0 80.4124 0C81.97 0 83.2184 0.528212 84.3084 1.58858C85.3943 2.64894 85.9413 3.94977 85.9413 5.49498C85.9413 7.0402 85.4102 8.35285 84.344 9.43686C83.2779 10.5209 81.97 11.0609 80.4164 11.0609C78.8627 11.0609 77.5429 10.5209 76.453 9.43686H76.449ZM92.1637 9.43686C91.0738 8.35679 90.5308 7.04414 90.5308 5.49498C90.5308 3.94582 91.0738 2.64894 92.1637 1.58858C93.2497 0.528212 94.5695 0 96.1271 0C97.6847 0 98.9252 0.528212 99.9874 1.58858C101.05 2.64894 101.585 3.94977 101.585 5.49498C101.585 7.0402 101.054 8.35285 99.9874 9.43686C98.9212 10.5209 97.6331 11.0609 96.1271 11.0609C94.621 11.0609 93.2536 10.5209 92.1637 9.43686Z" fill="#D6D6D6"/>
<path d="M42.3484 117.969L28.6986 102.142H11.0538V117.969H0V68.9634H34.8259C38.9557 68.9634 42.606 69.6493 45.7806 71.0171C48.9553 72.3849 51.4165 74.2967 53.1723 76.7447C54.9241 79.1965 55.8039 82.0307 55.8039 85.2552V85.5193C55.8039 89.7134 54.5713 93.1784 52.1101 95.918C49.6449 98.6576 46.2404 100.487 41.8886 101.413L56.2042 117.969H42.3563H42.3484ZM43.0459 80.2884C42.0908 79.1413 40.8819 78.4357 39.4155 78.1677C37.9491 77.9036 35.8881 77.7695 33.2247 77.7695C32.0278 77.7695 31.0053 77.7932 30.1611 77.8366C24.1685 77.9706 17.7994 78.0337 11.0498 78.0337V93.3321H33.2208C35.8842 93.3321 37.9491 93.2099 39.4115 92.9694C40.878 92.729 42.0868 92.0667 43.042 90.9827C43.9971 89.9027 44.4727 88.1682 44.4727 85.7834C44.4727 83.2685 43.9932 81.4355 43.042 80.2884H43.0459Z" fill="#D6D6D6"/>
<path d="M103.709 71.7184C108.195 73.8273 111.707 76.764 114.243 80.5246C116.78 84.2891 118.056 88.5187 118.064 93.2175C118.072 97.9162 116.816 102.067 114.291 105.796C111.766 109.525 108.279 112.466 103.824 114.61C99.369 116.754 94.3514 117.835 88.7789 117.846C83.2065 117.858 78.3989 116.798 73.849 114.669C69.2991 112.541 65.6924 109.604 63.0251 105.863C60.3578 102.122 59.0221 97.9438 59.0142 93.3318C59.0063 88.7198 60.3261 84.4625 62.9775 80.6902C65.629 76.9178 69.2159 73.9574 73.7341 71.813C78.2523 69.6687 83.2184 68.5886 88.6204 68.5768C94.0224 68.5649 99.2263 69.6135 103.713 71.7224L103.709 71.7184ZM97.5696 107.223C100.356 105.989 102.603 104.176 104.315 101.783C106.023 99.3904 106.88 96.5405 106.872 93.2372C106.864 89.9339 105.992 87.143 104.252 84.7345C102.512 82.326 100.233 80.4891 97.423 79.2238C94.613 77.9584 91.6405 77.3317 88.5094 77.3356C85.1644 77.3435 82.1086 77.9821 79.3462 79.2593C76.5837 80.5325 74.388 82.3576 72.763 84.7306C71.1381 87.1036 70.3296 89.922 70.3335 93.182C70.3375 96.4419 71.1936 99.3944 72.8899 101.779C74.5862 104.168 76.8334 105.985 79.6236 107.227C82.4138 108.473 85.4378 109.087 88.6957 109.084C91.9536 109.08 94.7834 108.461 97.5696 107.227V107.223Z" fill="#D6D6D6"/>
<path d="M52.764 41.0939C54.5515 42.9269 55.4472 45.5403 55.4472 48.9422V49.2063C55.4472 53.0457 54.5436 55.9627 52.7323 57.9494C50.9211 59.9361 48.448 61.2487 45.309 61.8913C42.17 62.5298 38.0204 62.8964 32.868 62.9832H29.8123L0 62.9162V13.9067H35.7375C40.5609 13.9501 44.4053 15.0105 47.2748 17.0839C50.1443 19.1613 51.579 22.094 51.579 25.8901V26.1542C51.579 29.0239 51.0162 31.3653 49.8946 33.1747C48.773 34.984 47.0885 36.3321 44.8413 37.2151C48.333 37.968 50.9726 39.257 52.7601 41.09L52.764 41.0939ZM40.1051 23.6787C39.356 22.8627 38.3811 22.3542 37.1722 22.1571C35.9674 21.96 34.2195 21.8575 31.9327 21.8575H10.166V33.5137L26.3206 33.7108H25.6983H31.9367C34.2631 33.7108 35.9991 33.6359 37.1445 33.4782C38.2859 33.3244 39.253 32.8159 40.0457 31.9566C40.8344 31.0973 41.2307 29.6703 41.2307 27.6836C41.2307 25.8309 40.8582 24.4946 40.1091 23.6787H40.1051ZM40.01 54.1731C41.3615 53.9523 42.4316 53.3689 43.2203 52.4189C44.009 51.4689 44.4053 49.9119 44.4053 47.7517C44.4053 45.5916 44.009 44.1764 43.2203 43.2501C42.4316 42.3238 41.3575 41.7601 40.01 41.563C38.6585 41.3659 36.6332 41.2634 33.9302 41.2634H10.166V54.3741C19.896 54.3741 26.8794 54.4175 31.1202 54.5081H33.9263C36.6293 54.5081 38.6545 54.3977 40.006 54.177L40.01 54.1731Z" fill="#D6D6D6"/>
<path d="M106.178 13.907H117.696V39.7342C117.696 44.5472 116.463 48.8084 114.002 52.5137C111.537 56.2231 108.152 59.1164 103.848 61.1898C99.5435 63.2633 94.724 64.3039 89.3973 64.3039C84.0706 64.3039 79.1322 63.2672 74.5823 61.1898C70.0324 59.1164 66.402 56.2112 63.695 52.4822C60.988 48.7532 59.6088 44.5236 59.5652 39.8012V13.907H71.1501V40.2663C71.1501 43.8416 72.1726 46.7113 74.2137 48.8754C76.2548 51.0395 78.6764 52.5729 81.4706 53.4795C84.2687 54.3861 86.9321 54.8355 89.4607 54.8355C91.7674 54.8355 94.2088 54.3822 96.785 53.4795C99.3572 52.5768 101.569 51.0395 103.412 48.8754C105.255 46.7113 106.174 43.8416 106.174 40.2663V13.907H106.178ZM76.449 9.43686C75.3591 8.35679 74.8162 7.04414 74.8162 5.49498C74.8162 3.94582 75.3591 2.64894 76.449 1.58858C77.535 0.528212 78.8548 0 80.4124 0C81.97 0 83.2184 0.528212 84.3084 1.58858C85.3943 2.64894 85.9413 3.94977 85.9413 5.49498C85.9413 7.0402 85.4102 8.35285 84.344 9.43686C83.2779 10.5209 81.97 11.0609 80.4164 11.0609C78.8627 11.0609 77.5429 10.5209 76.453 9.43686H76.449ZM92.1637 9.43686C91.0738 8.35679 90.5308 7.04414 90.5308 5.49498C90.5308 3.94582 91.0738 2.64894 92.1637 1.58858C93.2497 0.528212 94.5695 0 96.1271 0C97.6847 0 98.9252 0.528212 99.9874 1.58858C101.05 2.64894 101.585 3.94977 101.585 5.49498C101.585 7.0402 101.054 8.35285 99.9874 9.43686C98.9212 10.5209 97.6331 11.0609 96.1271 11.0609C94.621 11.0609 93.2536 10.5209 92.1637 9.43686Z" fill="#D6D6D6"/>
<path d="M42.3484 117.969L28.6986 102.142H11.0538V117.969H0V68.9634H34.8259C38.9557 68.9634 42.606 69.6493 45.7806 71.0171C48.9553 72.3849 51.4165 74.2967 53.1723 76.7447C54.9241 79.1965 55.8039 82.0307 55.8039 85.2552V85.5193C55.8039 89.7134 54.5713 93.1784 52.1101 95.918C49.6449 98.6576 46.2404 100.487 41.8886 101.413L56.2042 117.969H42.3563H42.3484ZM43.0459 80.2884C42.0908 79.1413 40.8819 78.4357 39.4155 78.1677C37.9491 77.9036 35.8881 77.7695 33.2247 77.7695C32.0278 77.7695 31.0053 77.7932 30.1611 77.8366C24.1685 77.9706 17.7994 78.0337 11.0498 78.0337V93.3321H33.2208C35.8842 93.3321 37.9491 93.2099 39.4115 92.9694C40.878 92.729 42.0868 92.0667 43.042 90.9827C43.9971 89.9027 44.4727 88.1682 44.4727 85.7834C44.4727 83.2685 43.9932 81.4355 43.042 80.2884H43.0459Z" fill="#D6D6D6"/>
<path d="M103.709 71.7184C108.195 73.8273 111.707 76.764 114.243 80.5246C116.78 84.2891 118.056 88.5187 118.064 93.2175C118.072 97.9162 116.816 102.067 114.291 105.796C111.766 109.525 108.279 112.466 103.824 114.61C99.369 116.754 94.3514 117.835 88.7789 117.846C83.2065 117.858 78.3989 116.798 73.849 114.669C69.2991 112.541 65.6924 109.604 63.0251 105.863C60.3578 102.122 59.0221 97.9438 59.0142 93.3318C59.0063 88.7198 60.3261 84.4625 62.9775 80.6902C65.629 76.9178 69.2159 73.9574 73.7341 71.813C78.2523 69.6687 83.2184 68.5886 88.6204 68.5768C94.0224 68.5649 99.2263 69.6135 103.713 71.7224L103.709 71.7184ZM97.5696 107.223C100.356 105.989 102.603 104.176 104.315 101.783C106.023 99.3904 106.88 96.5405 106.872 93.2372C106.864 89.9339 105.992 87.143 104.252 84.7345C102.512 82.326 100.233 80.4891 97.423 79.2238C94.613 77.9584 91.6405 77.3317 88.5094 77.3356C85.1644 77.3435 82.1086 77.9821 79.3462 79.2593C76.5837 80.5325 74.388 82.3576 72.763 84.7306C71.1381 87.1036 70.3296 89.922 70.3335 93.182C70.3375 96.4419 71.1936 99.3944 72.8899 101.779C74.5862 104.168 76.8334 105.985 79.6236 107.227C82.4138 108.473 85.4378 109.087 88.6957 109.084C91.9536 109.08 94.7834 108.461 97.5696 107.227V107.223Z" fill="#D6D6D6"/>
<path d="M152.758 63.1982L179.988 14.4074L125.538 14.4074L152.758 63.1982Z" fill="#D6D6D6"/>
<path d="M152.767 63.1982L125.538 114.946L179.988 114.946L152.767 63.1982Z" fill="#D6D6D6"/>
</svg>
